<?xml version="1.0" standalone="no"?>
<!DOCTYPE svg PUBLIC "-//W3C//DTD SVG 20010904//EN"
 "http://www.w3.org/TR/2001/REC-SVG-20010904/DTD/svg10.dtd">
<svg version="1.0" xmlns="http://www.w3.org/2000/svg"
 width="200.000000pt" height="200.000000pt" viewBox="0 0 200.000000 200.000000"
 preserveAspectRatio="xMidYMid meet">

<g transform="translate(0.000000,200.000000) scale(0.100000,-0.100000)"
fill="#000000" stroke="none">
<path d="M1054 1435 c-133 -29 -290 -121 -397 -234 -32 -33 -60 -61 -63 -61
-2 0 -2 10 1 23 4 12 1 36 -5 52 -10 27 -12 27 -28 11 -12 -12 -18 -38 -20
-95 -5 -106 4 -121 71 -120 86 1 157 14 175 33 16 16 16 18 -3 32 -14 11 -37
14 -77 12 -32 -3 -58 0 -58 5 0 5 39 48 88 96 131 131 275 198 478 223 91 11
111 19 78 32 -27 10 -176 5 -240 -9z"/>
<path d="M1589 1410 c-43 -23 -188 -80 -351 -139 -64 -24 -119 -49 -122 -57
-9 -23 35 -104 60 -110 12 -3 76 11 143 30 66 20 123 36 126 36 33 0 -233
-249 -406 -380 -139 -105 -224 -154 -333 -191 -146 -51 -282 -34 -314 40 -23
55 -26 208 -8 365 16 137 16 139 -4 182 -21 43 -46 62 -62 46 -40 -40 -71
-337 -48 -454 25 -130 118 -267 217 -320 104 -57 224 -42 415 51 201 99 294
165 478 337 l114 107 12 -70 c11 -69 33 -122 62 -155 26 -31 33 -20 27 40 -9
77 15 184 72 330 61 157 64 186 23 268 -34 70 -44 74 -101 44z m-159 -504 c0
-2 -30 -29 -67 -61 l-68 -57 63 61 c57 56 72 68 72 57z m-170 -150 c0 -2 -8
-10 -17 -17 -16 -13 -17 -12 -4 4 13 16 21 21 21 13z"/>
</g>
</svg>
